<svg width="20" height="20" viewBox="0 0 20 20" fill="none" xmlns="http://www.w3.org/2000/svg">
<path d="M17.9 2.00444C16.5 0.668145 14.7889 0 12.7778 0C10.7667 0 9.05556 0.668145 7.65556 2.00444C6.25556 3.34073 5.55556 4.97397 5.55556 6.89356C5.55556 7.66776 5.68889 8.39954 5.94444 9.0995C6.2 9.78886 6.55556 10.3934 7 10.9236L0 17.6051L1.55556 19.0899L8.55556 12.4084L10.1 10.9342C9.8 10.7433 9.51111 10.5312 9.23333 10.2767C8.25556 9.34342 7.77778 8.21924 7.77778 6.89356C7.77778 5.56788 8.26667 4.4437 9.23333 3.51041C10.2 2.57713 11.3889 2.1211 12.7778 2.1211C14.1667 2.1211 15.3444 2.58774 16.3222 3.51041C17.3 4.43309 17.7778 5.56788 17.7778 6.89356C17.7778 8.21924 17.2889 9.34342 16.3222 10.2767C15.3556 11.21 14.1667 11.666 12.7778 11.666C12.2778 11.666 11.8111 11.5812 11.3667 11.4645L9.86667 13.172C10.7667 13.5856 11.7333 13.7871 12.7778 13.7871C14.8 13.7871 16.5 13.119 17.9 11.7827C19.3 10.4464 20 8.81315 20 6.89356C20 4.97397 19.3 3.34073 17.9 2.00444Z" fill="#969696"/>
</svg>
