<svg width="26" height="19" viewBox="0 0 26 19" fill="none" xmlns="http://www.w3.org/2000/svg">
<g clip-path="url(#clip0_23_162)">
<path d="M7.15947 7.98344C4.80731 7.07933 3.77076 6.40125 3.77076 5.10673C3.77076 3.91495 4.74751 3.05193 6.08306 3.05193C7.299 3.05193 8.23588 3.75056 8.93356 5.00399L11.1262 3.62727C10.0897 1.57248 8.35548 0.545083 6.16279 0.545083C3.05316 0.524535 1 2.47659 1 5.16837C1 6.58618 1.49834 7.63412 2.41528 8.47659C3.41196 9.40125 4.86711 9.60673 6.14286 9.19577L8.31561 8.47659C7.95681 8.31221 7.57807 8.14782 7.15947 7.98344Z" fill="black"/>
<path d="M10.3853 9.87369C9.36869 9.01068 7.97334 8.8052 6.71752 9.21616L4.46503 9.95588C4.88364 10.1614 5.30224 10.3463 5.78065 10.5518C7.97334 11.4148 9.22915 12.0723 9.22915 13.5518C9.22915 15.0312 7.99327 16.0175 6.39859 16.0175C4.4451 16.0175 3.02981 14.9079 2.69094 12.7299L-0.0200195 13.4285C0.478319 16.5518 2.81055 18.5655 6.29892 18.5655C9.78729 18.5655 11.96 16.3874 11.96 13.3874C11.96 11.8463 11.4019 10.7573 10.3654 9.87369H10.3853Z" fill="black"/>
</g>
<g clip-path="url(#clip1_23_162)">
<path d="M22.4883 18.5215C24.4148 18.5215 25.9766 16.9597 25.9766 15.0332C25.9766 13.1067 24.4148 11.5449 22.4883 11.5449C20.5618 11.5449 19 13.1067 19 15.0332C19 16.9597 20.5618 18.5215 22.4883 18.5215Z" fill="black"/>
</g>
<defs>
<clipPath id="clip0_23_162">
<rect width="12" height="18" fill="white" transform="translate(0 0.544922)"/>
</clipPath>
<clipPath id="clip1_23_162">
<rect width="7" height="7" fill="white" transform="translate(19 11.5449)"/>
</clipPath>
</defs>
</svg>
